PathFileType	4	(X/Y/Z)	 1.8Hz3min.trc
DataRate	CameraRate	NumFrames	NumMarkers	Units	OrigDataRate	OrigDataStartFrame	OrigNumFrames
200	200	9	43	m	200	876	1000
Frame#	Time	C7			LSH			RSH			MAN			RASI			LASI			HIPR			HIPL			RPSI			LPSI			COX			RTHI1			RTHI2			RTHI3			RTHI4			RLKN			RMKN			RSHA1			RSHA2			RSHA3			RSHA4			RLMAL			RMMAL			RHEEL			RMET5			RMET1			RTOE			LTHI1			LTHI2			LTHI3			LTHI4			LLKN			LMKN			LSHA1			LSHA2			LSHA3			LSHA4			LLMAL			LMMAL			LHEEL			LMET5			LMET1			LTOE			
		X1	Y1	Z1	X2	Y2	Z2	X3	Y3	Z3	X4	Y4	Z4	X5	Y5	Z5	X6	Y6	Z6	X7	Y7	Z7	X8	Y8	Z8	X9	Y9	Z9	X10	Y10	Z10	X11	Y11	Z11	X12	Y12	Z12	X13	Y13	Z13	X14	Y14	Z14	X15	Y15	Z15	X16	Y16	Z16	X17	Y17	Z17	X18	Y18	Z18	X19	Y19	Z19	X20	Y20	Z20	X21	Y21	Z21	X22	Y22	Z22	X23	Y23	Z23	X24	Y24	Z24	X25	Y25	Z25	X26	Y26	Z26	X27	Y27	Z27	X28	Y28	Z28	X29	Y29	Z29	X30	Y30	Z30	X31	Y31	Z31	X32	Y32	Z32	X33	Y33	Z33	X34	Y34	Z34	X35	Y35	Z35	X36	Y36	Z36	X37	Y37	Z37	X38	Y38	Z38	X39	Y39	Z39	X40	Y40	Z40	X41	Y41	Z41	X42	Y42	Z42	X43	Y43	Z43	
876	4.3800	-0.248583	1.506413	-0.527366	-0.193176	1.509956	-0.716674	-0.177110	1.489587	-0.348029	-0.125163	1.446082	-0.531025	-0.164818	1.017241	-0.434380	-0.145644	1.023791	-0.647644	-0.208045	1.067860	-0.403444	-0.201303	1.071306	-0.681623	-0.303860	1.074845	-0.489318	-0.292580	1.077765	-0.600955	-0.300509	1.077377	-0.547427	-0.261629	0.821388	-0.360072	-0.255186	0.760467	-0.355866	-0.184398	0.776577	-0.352341	-0.197745	0.834395	-0.358142	-0.198719	0.516283	-0.364235	-0.173960	0.500837	-0.461923	-0.319508	0.354876	-0.389089	-0.329725	0.315585	-0.402977	-0.276947	0.299885	-0.375921	-0.268933	0.338519	-0.366233	-0.332105	0.159899	-0.404820	-0.292702	0.167982	-0.476554	-0.374275	0.158304	-0.459761	-0.267784	0.053160	-0.375069	-0.209791	0.052056	-0.432473	-0.185873	0.038498	-0.425229	-0.224249	0.798874	-0.732066	-0.216975	0.739736	-0.733703	-0.145352	0.750808	-0.724091	-0.161470	0.810704	-0.724227	-0.168764	0.518004	-0.717404	-0.184565	0.505249	-0.612709	-0.279765	0.332545	-0.741063	-0.292338	0.293953	-0.735926	-0.232063	0.280360	-0.732733	-0.226461	0.323669	-0.738059	-0.288177	0.162197	-0.738018	-0.290031	0.163686	-0.658955	-0.350631	0.152485	-0.705781	-0.207174	0.056841	-0.734592	-0.185937	0.059196	-0.663393	-0.167778	0.056846	-0.668309	
877	4.3850	-0.248326	1.503045	-0.527296	-0.192842	1.506329	-0.716635	-0.177034	1.485836	-0.347892	-0.125182	1.442465	-0.530891	-0.165681	1.013938	-0.434357	-0.146412	1.020528	-0.647652	-0.208994	1.064486	-0.403479	-0.202062	1.067995	-0.681630	-0.304704	1.071413	-0.489421	-0.293363	1.074413	-0.601023	-0.301313	1.074003	-0.547500	-0.261802	0.817890	-0.360175	-0.255050	0.757000	-0.355864	-0.184341	0.773489	-0.352268	-0.197991	0.831225	-0.358168	-0.197271	0.513050	-0.363773	-0.172600	0.497651	-0.461430	-0.319521	0.352828	-0.389017	-0.330148	0.313692	-0.403021	-0.277499	0.297353	-0.376133	-0.269104	0.335886	-0.366367	-0.334204	0.158103	-0.405400	-0.294622	0.166094	-0.477105	-0.376257	0.156543	-0.460476	-0.270056	0.051222	-0.375708	-0.211710	0.050544	-0.432897	-0.187659	0.037323	-0.425731	-0.224121	0.795428	-0.731876	-0.216552	0.736339	-0.733512	-0.145000	0.747752	-0.723837	-0.161413	0.807562	-0.723960	-0.167186	0.514853	-0.717139	-0.183224	0.502172	-0.612505	-0.279871	0.330355	-0.741190	-0.292853	0.291890	-0.736039	-0.232743	0.277723	-0.732489	-0.226669	0.320929	-0.737862	-0.290094	0.160246	-0.738008	-0.292179	0.161764	-0.658971	-0.352685	0.150788	-0.706014	-0.209493	0.054801	-0.734388	-0.188302	0.057049	-0.663218	-0.170109	0.054575	-0.667996	
878	4.3900	-0.248057	1.499438	-0.527233	-0.192480	1.502464	-0.716593	-0.176914	1.481844	-0.347757	-0.125168	1.438547	-0.530765	-0.166575	1.010375	-0.434331	-0.147221	1.017001	-0.647674	-0.209980	1.060835	-0.403508	-0.202871	1.064421	-0.681646	-0.305578	1.067699	-0.489526	-0.294178	1.070785	-0.601083	-0.302152	1.070345	-0.547572	-0.261970	0.814132	-0.360219	-0.254872	0.753283	-0.355834	-0.184255	0.770186	-0.352173	-0.198240	0.827830	-0.358138	-0.195781	0.509601	-0.363301	-0.171178	0.494262	-0.460935	-0.319538	0.350644	-0.388828	-0.330580	0.311609	-0.403044	-0.278057	0.294639	-0.376332	-0.269270	0.333058	-0.366505	-0.336371	0.156144	-0.405969	-0.296552	0.164027	-0.477631	-0.378268	0.154561	-0.461265	-0.272441	0.049037	-0.376335	-0.213626	0.049041	-0.433379	-0.189416	0.036397	-0.426141	-0.224000	0.791712	-0.731692	-0.216106	0.732676	-0.733357	-0.144626	0.744467	-0.723634	-0.161359	0.804178	-0.723718	-0.165550	0.511457	-0.716897	-0.181802	0.498856	-0.612327	-0.279963	0.327995	-0.741344	-0.293368	0.289658	-0.736179	-0.233436	0.274905	-0.732273	-0.226876	0.318000	-0.737702	-0.292055	0.158160	-0.738034	-0.294362	0.159689	-0.659061	-0.354781	0.148959	-0.706320	-0.211887	0.052574	-0.734244	-0.190752	0.054674	-0.663040	-0.172481	0.052076	-0.667727	
879	4.3950	-0.247780	1.495584	-0.527175	-0.192091	1.498357	-0.716550	-0.176752	1.477615	-0.347621	-0.125089	1.434309	-0.530642	-0.167505	1.006543	-0.434300	-0.148070	1.013208	-0.647710	-0.210992	1.056903	-0.403534	-0.203726	1.060580	-0.681680	-0.306483	1.063703	-0.489631	-0.295022	1.066877	-0.601138	-0.303021	1.066409	-0.547641	-0.262133	0.810123	-0.360203	-0.254659	0.749320	-0.355783	-0.184147	0.766671	-0.352034	-0.198498	0.824220	-0.358032	-0.194275	0.505957	-0.362803	-0.169717	0.490675	-0.460440	-0.319553	0.348259	-0.388608	-0.331002	0.309325	-0.403051	-0.278613	0.291747	-0.376499	-0.269432	0.330042	-0.366594	-0.338572	0.153989	-0.406538	-0.298493	0.161798	-0.478129	-0.380305	0.152316	-0.462057	-0.274821	0.046699	-0.376866	-0.215310	0.047691	-0.433952	-0.191011	0.035763	-0.426592	-0.223887	0.787727	-0.731525	-0.215636	0.728756	-0.733226	-0.144226	0.740958	-0.723485	-0.161311	0.800559	-0.723515	-0.163848	0.507826	-0.716690	-0.180297	0.495298	-0.612153	-0.280039	0.325460	-0.741529	-0.293879	0.287268	-0.736349	-0.234139	0.271900	-0.732082	-0.227077	0.314885	-0.737584	-0.294076	0.155932	-0.738092	-0.296667	0.157491	-0.659191	-0.356920	0.146956	-0.706684	-0.214373	0.050122	-0.734225	-0.193000	0.052345	-0.662823	-0.174615	0.049600	-0.667430	
880	4.4000	-0.247492	1.491489	-0.527121	-0.191678	1.494015	-0.716509	-0.176547	1.473159	-0.347486	-0.124970	1.429777	-0.530526	-0.168461	1.002461	-0.434271	-0.148953	1.009155	-0.647768	-0.212029	1.052692	-0.403555	-0.204625	1.056472	-0.681733	-0.307420	1.059440	-0.489737	-0.295898	1.062702	-0.601207	-0.303923	1.062199	-0.547711	-0.262298	0.805875	-0.360138	-0.254420	0.745120	-0.355720	-0.184031	0.762948	-0.351836	-0.198773	0.820415	-0.357847	-0.192748	0.502111	-0.362269	-0.168269	0.486873	-0.459910	-0.319578	0.345717	-0.388320	-0.331415	0.306850	-0.403052	-0.279186	0.288671	-0.376625	-0.269606	0.326844	-0.366626	-0.340808	0.151643	-0.407054	-0.300464	0.159423	-0.478600	-0.382377	0.149763	-0.462826	-0.277004	0.044400	-0.377265	-0.216540	0.046635	-0.434471	-0.192096	0.035397	-0.427061	-0.223783	0.783484	-0.731378	-0.215146	0.724583	-0.733119	-0.143813	0.737226	-0.723399	-0.161273	0.796706	-0.723365	-0.162081	0.503963	-0.716523	-0.178713	0.491506	-0.611992	-0.280097	0.322768	-0.741727	-0.294379	0.284739	-0.736535	-0.234853	0.268730	-0.731930	-0.227271	0.311595	-0.737514	-0.296162	0.153572	-0.738176	-0.299069	0.155184	-0.659342	-0.359112	0.144724	-0.707061	-0.216728	0.047702	-0.734407	-0.194662	0.050476	-0.662654	-0.176077	0.047470	-0.666939	
881	4.4050	-0.247204	1.487158	-0.527070	-0.191239	1.489429	-0.716471	-0.176300	1.468478	-0.347363	-0.124830	1.424963	-0.530419	-0.169446	0.998138	-0.434247	-0.149871	1.004850	-0.647844	-0.213080	1.048209	-0.403573	-0.205573	1.052100	-0.681812	-0.308391	1.054925	-0.489850	-0.296810	1.058276	-0.601280	-0.304861	1.057726	-0.547791	-0.262475	0.801394	-0.360053	-0.254171	0.740696	-0.355655	-0.183916	0.759027	-0.351576	-0.199062	0.816397	-0.357595	-0.191199	0.498063	-0.361685	-0.166839	0.482864	-0.459340	-0.319626	0.343016	-0.387984	-0.331835	0.304244	-0.403020	-0.279804	0.285429	-0.376712	-0.269817	0.323468	-0.366590	-0.343069	0.149129	-0.407506	-0.302491	0.156934	-0.479058	-0.384508	0.146892	-0.463542	-0.278785	0.042278	-0.377504	-0.217266	0.045911	-0.434819	-0.192431	0.035275	-0.427648	-0.223691	0.778989	-0.731246	-0.214644	0.720157	-0.733027	-0.143393	0.733280	-0.723377	-0.161252	0.792628	-0.723280	-0.160229	0.499885	-0.716405	-0.177046	0.487472	-0.611866	-0.280140	0.319927	-0.741928	-0.294880	0.282082	-0.736713	-0.235586	0.265390	-0.731815	-0.227452	0.308139	-0.737476	-0.298277	0.151090	-0.738262	-0.301552	0.152763	-0.659483	-0.361336	0.142260	-0.707473	-0.218630	0.045627	-0.734825	-0.195681	0.049042	-0.662704	-0.176864	0.045640	-0.666296	
882	4.4100	-0.246916	1.482590	-0.527026	-0.190781	1.484609	-0.716440	-0.176017	1.463580	-0.347228	-0.124666	1.419869	-0.530318	-0.170458	0.993579	-0.434226	-0.150824	1.000306	-0.647934	-0.214148	1.043469	-0.403583	-0.206566	1.047468	-0.681921	-0.309398	1.050170	-0.489971	-0.297754	1.053601	-0.601346	-0.305837	1.052995	-0.547877	-0.262665	0.796689	-0.359970	-0.253917	0.736062	-0.355588	-0.183814	0.754916	-0.351266	-0.199370	0.812178	-0.357308	-0.189615	0.493810	-0.361045	-0.165406	0.478650	-0.458730	-0.319723	0.340184	-0.387620	-0.332283	0.301525	-0.402972	-0.280495	0.282032	-0.376761	-0.270093	0.319929	-0.366494	-0.345346	0.146476	-0.407890	-0.304592	0.154355	-0.479513	-0.386730	0.143737	-0.464147	-0.280110	0.040318	-0.377583	-0.217589	0.045496	-0.435036	-0.192113	0.035265	-0.428430	-0.223619	0.774246	-0.731132	-0.214147	0.715484	-0.732943	-0.142974	0.729116	-0.723415	-0.161253	0.788327	-0.723264	-0.158281	0.495602	-0.716342	-0.175293	0.483214	-0.611803	-0.280165	0.316950	-0.742112	-0.295373	0.279310	-0.736864	-0.236341	0.261884	-0.731717	-0.227621	0.304531	-0.737472	-0.300374	0.148509	-0.738323	-0.304111	0.150226	-0.659571	-0.363558	0.139551	-0.707925	-0.220009	0.043959	-0.735441	-0.196129	0.047960	-0.662811	-0.176954	0.044025	-0.665714	
883	4.4150	-0.246628	1.477783	-0.526989	-0.190302	1.479555	-0.716421	-0.175691	1.458449	-0.347094	-0.124502	1.414540	-0.530224	-0.171496	0.988798	-0.434213	-0.151809	0.995528	-0.648048	-0.215225	1.038485	-0.403588	-0.207602	1.042580	-0.682057	-0.310440	1.045188	-0.490099	-0.298741	1.048690	-0.601423	-0.306871	1.048032	-0.547996	-0.262867	0.791795	-0.359918	-0.253674	0.731234	-0.355525	-0.183731	0.750626	-0.350926	-0.199698	0.807774	-0.357021	-0.188001	0.489369	-0.360331	-0.163951	0.474228	-0.458049	-0.319852	0.337180	-0.387358	-0.332780	0.298734	-0.402907	-0.281276	0.278517	-0.376781	-0.270458	0.316259	-0.366343	-0.347624	0.143727	-0.408197	-0.306789	0.151722	-0.479979	-0.389038	0.140389	-0.464597	-0.281076	0.038630	-0.377498	-0.217668	0.045346	-0.435102	-0.191489	0.035230	-0.429208	-0.223574	0.769267	-0.731030	-0.213660	0.710580	-0.732858	-0.142569	0.724738	-0.723505	-0.161290	0.783812	-0.723312	-0.156221	0.491126	-0.716332	-0.173416	0.478745	-0.611789	-0.280162	0.313841	-0.742254	-0.295846	0.276418	-0.736956	-0.237091	0.258234	-0.731620	-0.227771	0.300783	-0.737463	-0.302365	0.145847	-0.738328	-0.306715	0.147603	-0.659541	-0.365714	0.136633	-0.708444	-0.220837	0.042687	-0.736136	-0.195905	0.047353	-0.663032	-0.176266	0.042643	-0.665213	
884	4.4200	-0.246340	1.472756	-0.526958	-0.189795	1.474271	-0.716419	-0.175323	1.453096	-0.346960	-0.124355	1.409001	-0.530139	-0.172552	0.983815	-0.434205	-0.152824	0.990535	-0.648182	-0.216321	1.033273	-0.403583	-0.208688	1.037448	-0.682217	-0.311513	1.039995	-0.490241	-0.299760	1.043554	-0.601504	-0.307947	1.042839	-0.548122	-0.263084	0.786722	-0.359908	-0.253441	0.726232	-0.355466	-0.183670	0.746171	-0.350587	-0.200045	0.803196	-0.356769	-0.186355	0.484740	-0.359540	-0.162445	0.469608	-0.457274	-0.320041	0.334123	-0.387085	-0.333335	0.295916	-0.402820	-0.282158	0.274918	-0.376785	-0.270919	0.312493	-0.366170	-0.349884	0.140937	-0.408433	-0.309059	0.149057	-0.480461	-0.391413	0.136961	-0.464895	-0.281943	0.037222	-0.377268	-0.217829	0.045359	-0.434902	-0.190903	0.035200	-0.429752	-0.223565	0.764062	-0.730931	-0.213195	0.705447	-0.732769	-0.142188	0.720158	-0.723642	-0.161369	0.779089	-0.723416	-0.154044	0.486478	-0.716371	-0.171389	0.474092	-0.611841	-0.280104	0.310606	-0.742328	-0.296262	0.273418	-0.736983	-0.237798	0.254465	-0.731521	-0.227878	0.296919	-0.737439	-0.304157	0.143117	-0.738275	-0.309113	0.144861	-0.659449	-0.367757	0.133599	-0.709020	-0.221073	0.041904	-0.736781	-0.195295	0.046987	-0.663334	-0.175167	0.041358	-0.664667	
